<svg xmlns="http://www.w3.org/2000/svg" width="640" height="480" viewBox="0 0 640 480"><defs><linearGradient id="g" x1="0" y1="0" x2="1" y2="1"><stop stop-color="#f7fbff"/><stop offset="1" stop-color="#dbeaff"/></linearGradient></defs><rect width="640" height="480" rx="28" fill="url(#g)"/><circle cx="75" cy="70" r="40" fill="#0d6efd"/><text x="75" y="80" text-anchor="middle" font-family="Arial" font-size="25" font-weight="700" fill="#fff">CI</text><path d="M250 385c-24-38-45-126-35-159 6-19 28-13 35 5l18 50-4-113c-1-24 31-26 36-3l12 105 4-122c1-24 34-24 36 0l7 121 12-108c3-23 35-20 35 4l-3 121 18-63c7-23 38-14 35 10-8 75-27 142-76 190-42 41-99 19-130-38Z" fill="#f2c94c" stroke="#c79a00" stroke-width="7"/><rect x="35" y="410" width="570" height="48" rx="14" fill="#fff" opacity=".95"/><text x="320" y="441" text-anchor="middle" font-family="Arial" font-size="21" font-weight="700" fill="#17324d">Guantes Mapa Talle 8</text><text x="320" y="40" text-anchor="middle" font-family="Arial" font-size="16" font-weight="700" fill="#4d6885">Elementos</text></svg>